<svg version="1.1" viewBox="100 160 380 200"
	xmlns="http://www.w3.org/2000/svg" xmlns:xlink="http://www.w3.org/1999/xlink" width="100%" height="100%">
	<style type="text/css">
	.dot1 {
	  fill:white;
	  stroke:black;
	}
	.dot2 {
	  fill:black;
	  stroke:none;
	}
	.dot3 {
	  font-family:"Verdana";
	  font-size:10px;
	  fill:black;
	}
	</style>
	<defs>
		<filter id="shadow">
			<feGaussianBlur stdDeviation="1" in="SourceAlpha"
				result="blur" />
			<feOffset in="blur" dx="4" dy="4" result="offsetBlur" />
			<feComposite in="SourceGraphic" in2="offsetBlur"
				operator="arithmetic" k1="0" k2="1" k3="1" k4="0" />
		</filter>
	</defs>
	<g>
		<text
			style="font-size:40px;font-style:normal;fill:#030;stroke:none;font-family:Arial;"
			transform="translate(9.0714286,-29.857143)">
			<textPath xlink:href="#path2999" xmlns:v="http://www.vectomatic.org">
				<tspan v:title="connectDotsTitle"/>
			</textPath>
		</text>
		<text
			style="font-size:40px;font-style:normal;fill:MediumSeaGreen;stroke:none;font-family:Arial;"
			transform="translate(6.0714286,-32.857143)">
			<textPath xlink:href="#path2999" xmlns:v="http://www.vectomatic.org">
				<tspan v:title="connectDotsTitle"/>
			</textPath>
		</text>
		<path
			d="m 114.64286,284.50504 c 31.78571,-26.78571 85.48182,-33.49385 117.5,-13.57143 48.21428,30 124.8341,41.37232 161.78571,7.5 42.85715,-39.28571 35.71429,-30 35.71429,-30"
			id="path2999" style="fill:none;stroke:black;visibility:hidden;" />
		<path
			d="m 114.64286,284.50504 c 31.78571,-26.78571 85.48182,-33.49385 117.5,-13.57143 48.21428,30 124.8341,41.37232 161.78571,7.5"
			style="fill:none;stroke:black;stroke-dasharray:5,2" />
		<g transform="translate(114.64286,284.50504)">
			<circle r="5" cx="0" cy="0" class="dot1" />
			<circle r="3" cx="0" cy="0" class="dot2" />
			<text class="dot3" x="0" y="16">1</text>
		</g>
		<g transform="translate(231,271)">
			<circle r="5" cx="0" cy="0" class="dot1" />
			<circle r="3" cx="0" cy="0" class="dot2" />
			<text class="dot3" x="0" y="16">2</text>
		</g>
		<g transform="translate(392,278)">
			<circle r="5" cx="0" cy="0" class="dot1" />
			<circle r="3" cx="0" cy="0" class="dot2" />
			<text class="dot3" x="0" y="16">3</text>
		</g>
		<g transform="translate(427,248)">
			<circle r="5" cx="0" cy="0" class="dot1" />
			<circle r="3" cx="0" cy="0" class="dot2" />
			<text class="dot3" x="0" y="16">4</text>
		</g>
	</g>
</svg>
