<?xml version="1.0" encoding="UTF-8" standalone="no"?>
<svg xmlns="http://www.w3.org/2000/svg" fill-opacity="0.5" width="64" height="64" viewBox="0 0 450 450" xmlns:xlink="http://www.w3.org/1999/xlink" fill="#000000">
 <defs>
  <linearGradient id="linearGradient129">
   <stop stop-color="#FFF" stop-opacity="0.623529" offset="0"/>
   <stop stop-color="#000" stop-opacity="0.458824" offset="1"/>
  </linearGradient>
  <linearGradient id="linearGradient132" y2="0.93294" xlink:href="#linearGradient129" y1="-0.083528" x2="0.54952" x1="0.5591"/>
  <linearGradient id="linearGradient142" y2="0.38857" xlink:href="#linearGradient129" y1="0.38286" x2="0.014196" x1="0.87785"/>
  <linearGradient id="linearGradient48" y2="0.54286" xlink:href="#linearGradient129" y1="0.50857" x2="0.066123" x1="1.4545"/>
  <linearGradient id="linearGradient49" y2="0.51429" xlink:href="#linearGradient129" y1="0.42857" x2="0.57144" x1="0.49309"/>
  <linearGradient id="linearGradient50" y2="0.47429" xlink:href="#linearGradient129" y1="0.42857" x2="0.40769" x1="0.45062"/>
  <linearGradient id="linearGradient53" y2="0.56" xlink:href="#linearGradient129" y1="0.54857" x2="0.46689" x1="-0.33722"/>
  <linearGradient id="linearGradient54" y2="0.8125" xlink:href="#linearGradient129" y1="0.125" x2="0.41306" x1="1.0947"/>
 </defs>
 <path fill-rule="evenodd" fill="#42aa44" d="M36.964,331.58c2.765,15.58-14.216,17.75-16.382,24.25,15.308,11.02-24.446,27.82-17.036,32.76,5.2604,4.6,83.47,36.12,96.324,37.35,78.71,15.18,242.05,4.33,271.94-9.83,35.81-20.16,53.92-22.35,59.63-32.11-3.38-8.09-35.04-23.2-28.18-29.48-5.71-7.15-30.35-6.41-24.9-21.63-17.26-4.93-3.37-0.03-15.73-9.17-4.61-1.16-5.82-11.14-10.48-11.14-42.09-28.25-247.46-19-290.94,4.59-6.202,12.33-16.999,12-24.245,14.41z"/>
 <path d="M69.989,367.18c6.113,12.75-26.948,44.08-15.476,49.64,131.31-13.29,171.21-22.01,243.45,2.95,8.32-6.05,80.5-51.18,63.4-55.53-26.45-3.94-186.1-5.03-291.37,2.94z" fill-opacity="0.226601" fill-rule="evenodd" fill="#000"/>
 <path d="M72.313,346.85c0-18.98,2.62-50.24,2.62-62.25,0-6.55-2.621-93.05-2.621-99.6,0-2.37,2.622-1.11,2.622-2.62,3.817-3.82,139.89-115.77,145.69-115.77,73.61,48.926,78.47,45.866,85.84,58.536,22.06,10.49,57.89,41.5,65.31,51.99,1.9,3.8-0.73,8.09-1.96,11.79-0.94,7.49-7.87,92.71-7.87,98.95-0.95,6.68,0,43.15,0,55.04,0,4.15-0.14,13.1-0.65,21.62-13.11-0.65-37.03,0.74-42.6-0.65-24.9,0.65-48.29-1.12-72.07-1.31,0.35-10.49,0.65-55.92,0.65-62.91,0-6.11,0.78-44.75,0.78-48.83-0.76-1.53-56.26-2.22-65.78-0.91,0.2,5.35-2.39,42.88-2.49,49.74,0,14.2-0.81,55.2-0.66,65.53-14.15-0.14-69.89,0.65-76.01,0.65h-29.487c-1.669-0.83-1.31-13.56-1.31-19z" fill-rule="evenodd" stroke="#000" stroke-width="1" fill="#9b6200"/>
 <path d="M12.028,204.66c2.767,4.95-0.829,0.65,10.484,10.48,5.917,6.54,9.499-5.79,15.727-7.86,63.701-44.45,182.17-139.9,220.06-169.5-3.17-1.584-9.28-7.978-11.89-10.581-2.57,0-18.63,10.866-29.94,18.88-98.22,72.078-129.74,89.528-204.44,158.58z" fill-rule="evenodd" stroke="#000" stroke-width="1" fill="#9b5e00"/>
 <path d="M73.164,214.71c8.979,4.04,23.857,0.72,31.796,1.09,8.87,0.31,53.44,2.09,66.89,0.65,11.05,0.55,79.96-0.65,99.18,0.66,24.55,1.57,72.47-0.66,95.53-1.31,1.21-13.6,2.68-10.49,2.52-20.32-21.89,1.43-36.69,3.94-58.6,3.94-12.52-1.3-97.51,0-110.03,0-15.17,0-127.91-1.4-127.91-4.37,2.241,0-0.417,9.51,0.622,19.66z" fill-rule="evenodd" stroke="#412900" stroke-width="0.89858" fill="url(#linearGradient132)"/>
 <path d="M72.635,194.83c8.979,4.04,26.479,1.6,34.415,1.96,8.87,0.32,56.07,3.85,69.52,2.41,11.04,0.54,71.66,1.09,90-0.66,24.55,1.58,63.3,1.09,102.08-1.75,2.08-12.71,1.37-10.04,2.52-19.87-21.89,1.43-36.69,1.75-58.6,2.62-12.52-1.29-97.5-0.44-110.03-0.44-15.17,0-122.66,0.79-122.66-2.18,2.241,0-9.154,2.96-7.242,17.91z" fill-rule="evenodd" stroke="#6b3400" stroke-width="0.89858" fill="url(#linearGradient132)"/>
 <path d="M73.509,230.86c8.979,4.04,24.294,1.16,32.231,1.52,8.87,0.32,104.56,1.66,118.01,0.22,23.71-0.76,64.23,3.28,83.45,4.59,21.05-2.36,35.77-3.71,58.83-4.37-0.98-12.28,0.93-7.86,0.34-17.69-21.89,1.43-49.8,3.06-71.71,3.06-12.52-1.29-80.9-2.19-93.43-2.19-15.17,0-118.3,2.1-127.9-0.87,0.492,5.24-0.855,6.89,0.184,15.73z" fill-rule="evenodd" stroke="#360000" stroke-width="0.89858" fill="url(#linearGradient132)"/>
 <path d="M73.614,251.18c2.753,4.05,8.119,1.6,10.552,1.97,2.719,0.31,16.384,2.09,20.514,0.65,3.38,0.55,24.52-0.65,30.41,0.66,7.52,1.57,22.22-0.66,29.29-1.31,1.31-12.28,0.95-10.49,0.77-20.32-6.71,1.43-11.69,0.88-18.4,0.88-3.84-1.29-30.77-1.31-34.61-1.31-4.66,0-38.379,1.66-38.379-1.31,0.687,0-1.269,9.51-0.147,20.09z" fill-rule="evenodd" stroke="#361c00" stroke-width="0.497574" fill="url(#linearGradient132)"/>
 <path d="M266.33,251.84c3.01,4.04,8.87,1.6,11.52,1.96,2.97,0.31,17.9,2.1,22.41,0.66,3.7,0.54,26.77-0.66,33.21,0.65,8.22,1.58,22.52-0.65,30.24-1.31,1.43-12.28,2.79-10.48,2.59-20.31-9.95-1.19-14.03,0-21.37,0-4.19-1.29-34.83,3.93-39.03,3.93-20.81-2.18-40.36-0.96-40.36-3.93,1.18,1.75-0.44,7.76,0.79,18.35z" fill-rule="evenodd" stroke="#2b0000" stroke-width="0.519996" fill="url(#linearGradient132)"/>
 <path d="M74.488,270.84c2.753,4.04,7.245,1.6,9.678,1.96,2.719,0.32,23.814,3.41,27.934,1.97,3.39,0.55,17.1-1.96,22.99-0.65,7.52,1.57,22.22-0.66,29.29-1.31,1.31-12.29,0.95-10.49,0.77-20.32-6.71,1.43-10.37,3.06-17.09,3.06-3.84-1.29-30.34-1.75-34.18-1.75-4.65,0-39.682,0.79-39.682-2.18,0.687,0,0.041,9.07,0.29,19.22z" fill-rule="evenodd" stroke="#2c0000" stroke-width="0.497574" fill="url(#linearGradient132)"/>
 <path d="M74.726,289.63c2.832,4.04,5.292,1.16,7.794,1.52,2.796,0.32,21.22,2.1,26.77,1.53,3.49,0.55,19.54-1.53,25.59-0.22,7.75,1.58,23.29-0.65,30.13-3.49,1.34-12.28-0.77-6.55-0.96-16.38-6.9,1.42-9.82,2.18-16.73,2.18-3.94-1.29-30.74,0-34.69,0-4.78,0-31.661-2.71-36.903-2.62-0.604,6.99-0.844,6.89-1.001,17.48z" fill-rule="evenodd" stroke="#000" stroke-width="0.504579" fill="url(#linearGradient132)"/>
 <path d="M74.503,307.1c2.812,4.04,4.797,2.03,7.282,2.4,2.777,0.31,16.737,2.09,20.945,0.66,3.46,0.54,25.04-0.66,31.06,0.65,7.69,1.57,23.57-0.65,30.79-1.31,1.33-12.28,0.97-10.92,0.79-20.75-6.86,1.43-12.37,4.37-19.23,4.37-3.92-1.29-30.53,0-34.45,0-4.75,0-36.618-0.52-36.618-3.5,0.702,0-1.715,6.89-0.569,17.48z" fill-rule="evenodd" stroke="#230000" stroke-width="0.502837" fill="url(#linearGradient132)"/>
 <path d="M73.63,326.76c2.811,4.04,5.67,0.72,8.155,1.09,2.777,0.31,16.737,2.09,20.945,0.65,3.46,0.55,21.55,1.97,31.06,0.66,7.69,1.57,22.69-1.09,30.35-3.93,1.34-12.28,0.1-6.55-0.08-16.38-6.86,1.42-11.06,2.62-17.92,2.62-3.92-1.29-30.53-1.31-34.45-1.31-4.75,0-36.618,0.35-36.618-2.62,0.702,0-2.588,8.63-1.442,19.22z" fill-rule="evenodd" stroke="#000" stroke-width="0.502837" fill="url(#linearGradient132)"/>
 <path d="M72.303,344.23c4.937,1.42,8.119,1.6,10.552,1.96,2.719,0.32,19.005,2.97,23.135,1.53,3.39,0.55,21.89-1.52,27.79-0.21,7.52,1.57,22.22-1.1,28.41-3.06,1.31-12.28,1.83-8.74,1.65-18.57-6.71,1.43-11.25,3.93-17.97,3.93-3.84-1.29-29.89,0-33.74,0-4.65,0-38.806-0.52-38.806-3.49,0.687,0-1.27,7.33-1.021,17.91z" fill-rule="evenodd" stroke="#310000" stroke-width="0.497574" fill="url(#linearGradient132)"/>
 <path d="M72.959,364.33c2.753,4.04,6.808,1.16,9.241,1.52,2.719,0.32,16.388,0.79,20.51-0.65,3.39,0.54,24.52-0.66,30.41,0.65,7.53,1.58,22.22-0.65,29.29-1.31,1.31-12.28,0.96-10.48,0.78-20.31-6.72,1.43-11.25,3.93-17.97,3.93-3.84-1.29-29.9,0-33.74,0-4.65,0-38.811-1.83-38.811-4.8,0.687,0-0.833,10.38,0.29,20.97z" fill-rule="evenodd" stroke="#240000" stroke-width="0.497574" fill="url(#linearGradient132)"/>
 <path d="M266.31,270.19c2.93,4.04,9.95,1.59,12.53,1.96,2.9,0.31,26.61,3.41,31,1.97,3.6,0.54,16.91-1.97,23.17-0.66,8.01,1.57,22.33-0.65,29.85-1.31,1.4-12.28,1.46-8.74,1.26-18.57-7.14,1.43-11.09,2.19-18.24,2.19-4.96-0.86-31.8-0.87-35.89-0.87-4.95,0-40.09-0.09-44.45-1.32-0.58,4.81-0.43,6.02,0.77,16.61z" fill-rule="evenodd" stroke="#270000" stroke-width="0.513202" fill="url(#linearGradient132)"/>
 <path d="M265.42,290.06c2.87,4.05,10.21,2.47,12.75,2.84,2.83,0.31,16.21,1.66,20.51,0.22,3.53,0.54,26,0.22,33.01-0.66,7.85,1.58,23.17-0.65,30.54-1.31,1.36-12.28,0.56-8.73,0.37-18.56-7,1.42-11.29,0.87-18.3,0.87-4-1.29-35.1,0-39.1,0-4.85,0-38.35,0.35-38.35-2.62,0.71,0-2.6,8.64-1.43,19.22z" fill-rule="evenodd" stroke="#290000" stroke-width="0.508046" fill="url(#linearGradient132)"/>
 <path d="M266.89,309.5c2.89,4.04,8.53,1.6,11.08,1.97,2.86,0.31,17.22,2.09,21.55,0.65,3.55,0.55,25.75-0.65,31.94,0.66,7.9,1.57,22.03-0.66,29.45-1.31,1.38-12.29,0.35-9.83,0.16-19.66-7.05,1.43-4.61,0.65-13.41,1.09-4.04-1.29-34.9,0.87-38.93,0.87-4.89,0-42.6,0.35-42.6-2.62,0.72,0-0.42,7.77,0.76,18.35z" fill-rule="evenodd" stroke="#240000" stroke-width="0.509939" fill="url(#linearGradient132)"/>
 <path d="M267.52,328.5c2.88,4.05,7.16,0.95,9.7,1.31,2.84,0.32,17.1,2.1,21.41,0.66,3.53,0.54,25.58-0.65,31.73,0.66,7.85,1.57,23.18-0.66,30.56-1.32,1.36-12.28,0.12-7.86-0.07-17.69-7,1.43-10.86,1.31-17.87,1.31-4.01-1.29-33.82-1.74-37.83-1.74-4.85,0-39.48,1.44-39.48-1.53,2.69,0,0.68,7.76,1.85,18.34z" fill-rule="evenodd" stroke="#240000" stroke-width="0.508259" fill="url(#linearGradient132)"/>
 <path d="M267.11,344.45c2.83,4.04,8.79,3.34,11.29,3.71,2.8,0.31,16.86,2.1,21.11,0.66,3.48,0.54,25.22-0.66,31.28,0.65,7.75,1.58,22.87-0.65,30.14-1.31,1.35-12.28,0.55-9.17,0.36-19-6.91,1.43-11.14,2.62-18.05,2.62-3.95-1.29-30.32-1.31-34.28-1.31-4.78,0-42.16,0.35-42.16-2.62,0.7,0-0.85,6.01,0.31,16.6z" fill-rule="evenodd" stroke="#140000" stroke-width="0.504708" fill="url(#linearGradient132)"/>
 <path d="M267.38,363.23c6.13,0.12,8.63-0.58,12.46-0.22,2.81,0.32,16.96,2.32,21.23,0.88,3.51,0.54,25.39-0.66,31.49,0.65,7.8,1.58,21.05,0,28.37-0.65,1.35-12.28,0.98-6.55,0.8-16.38-6.95,1.42-12.31,1.96-17.95,3.27-3.98-1.29-29.65-1.96-33.63-1.96-4.81,0-36.97,0.78-43.08-2.19-0.17,5.68-0.41,6.02,0.31,16.6z" fill-rule="evenodd" stroke="#240000" stroke-width="0.506316" fill="url(#linearGradient132)"/>
 <path d="M25.2,217.89c5.156-6.87,18.148-13.47,24.676-18,7.235-5.13,38.417-28.87,57.834-43.43,8.67-9.77,55.04-43.34,69.35-55.28,20.9-17.151,62.56-49.199,80.48-63.724-10.12-8.991-5.71-3.941-12.15-11.39-16.53,14.429-26.09,18.021-43.5,31.33-10.73,6.576-80.15,57.204-90.1,64.804-26.463,16.64-95.222,77.97-100.76,82.59,4.465,3.34,7.515,6.25,14.165,13.1z" fill-rule="evenodd" stroke="#290000" stroke-width="0.89858" fill="url(#linearGradient49)"/>
 <path d="M81.372,177.14c8.542,2.73,19.048,0.28,26.988,0.65,8.87,0.31,53.45,2.1,66.9,0.66,11.04,0.54,79.96-0.66,99.17,0.65,24.55,1.58,73.79-1.09,96.84-1.75-15.39-10.97-22.22-13.32-29.37-21.4-7.04,0.55-12.22,3.71-28.02,5.46-12.52-1.29-97.5,0-110.03,0-15.17,0-94.7,1.22-100.38-1.75-6.062,4.81-10.25,9.08-22.098,17.48z" fill-rule="evenodd" stroke="#430000" stroke-width="0.89858" fill="url(#linearGradient132)"/>
 <path d="M104.87,159.88c8.43,1.19,51.26,2.53,64.71,1.09,11.04,0.55,81.7-1.09,100.92,0.22,24.55-0.61,54.13,1.75,69.98-5.02-16.05-11.63-10.65-6.55-21.73-15.73-21.89,1.43-106.3-0.43-118.83-0.43-15.17,0-57.57-0.53-72.21-0.44-9.77,8.74-17.24,13.39-22.84,20.31z" fill-rule="evenodd" stroke="#4d0000" stroke-width="0.89858" fill="url(#linearGradient132)"/>
 <path d="M128.55,139.35c13.35,0.55,35.22,1.87,48.67,0.44,11.05,0.54,65.55,0.22,84.76,1.53,24.55,1.57,34.47-0.44,57.53-1.1-15.4-12.28-16.55-11.57-25-18.13-21.9,1.43-1.31-0.65-23.22-0.65-12.52-1.29-52.95,1.31-65.47,1.31-15.17,0-58.23,1.66-54.3-1.31,5.3,0.87-15.49,9.29-22.97,17.91z" fill-rule="evenodd" stroke="#450000" stroke-width="0.89858" fill="url(#linearGradient132)"/>
 <path d="M152.48,121.66c8.87,0.31,9.98,2.53,23.43,1.09,11.05,0.54,78.65-1.97,97.87-0.66,24.55,1.58-2.67,0.22,20.39-0.43-10.15-9.67-13.93-10.49-23.04-17.04-21.89,1.43-55.41-0.22-67.93-0.22-15.17,0-23.72,0.35-29.18-0.65-6.94,5.67-13.09,12.08-21.54,17.91z" fill-rule="evenodd" stroke="#610000" stroke-width="0.89858" fill="url(#linearGradient132)"/>
 <path d="M173.73,103.96c11.04,0.55,74.45,1.75,97.51,1.1,4.26-12.286-15.46-11.361-22.17-18.132-21.89,1.427-42.08,2.184-54.61,2.184-7.74,4.806-8.84,8.428-20.73,14.848z" fill-rule="evenodd" stroke="#340000" stroke-width="0.89858" fill="url(#linearGradient132)"/>
 <path d="M193.6,88.893c11.05,0.544,34.75-2.183,53.97-0.873-14.11-11.314-16.34-13.76-26.9-20.968-7.96,5.897-17.36,14.106-27.07,21.841z" fill-rule="evenodd" stroke="#340000" stroke-width="0.89858" fill="url(#linearGradient132)"/>
 <path d="M242.68,138.48c0,12.66-11.59,22.93-25.88,22.93s-25.88-10.27-25.88-22.93,11.59-22.94,25.88-22.94,25.88,10.28,25.88,22.94z" fill-rule="evenodd" stroke="#000" stroke-width="1"/>
 <path d="M182.6,35.635c2.45,2.081,11.07,11.599,19.57,16.373,2.78,5.264,118.37,87.792,122.9,91.632,3.58,3.65,81.55,60.86,83.78,58.23,1.71-1.37,13.09-10.74,12.85-13.68-8.37-9.19-60.24-43.38-64.53-45.11-4.5-2.49-65.97-42.12-71.24-46.595-4.56-3.209-49.89-37.94-55.09-42.483-6.78-3.792-35.26-28.247-40.06-33.659-3.08,2.598-6.54,14.892-8.18,15.292z" fill-rule="evenodd" stroke="#000" stroke-width="1.064341" fill="#9c6100"/>
 <path d="M182.95,36.206c4.73,8.357,19.44,16.258,25.32,21.04,6.63,5.265,39.84,31.9,50.91,38.329,8.17,6.685,61.61,44.645,75.64,56.565,17.97,15.15,56.28,40.29,74.3,49.29,9.81-7.57,8.24-5.15,13.02-13.47-12.73-13.39-25.51-18.2-42.3-30.58-9.34-7.69-80.95-51.54-90.55-58.613-11.62-8.569-99.96-76.391-98.38-78.804,1.72,1.266-5.12,5.576-7.96,16.243z" fill-rule="evenodd" stroke="#3f0000" stroke-width="0.863538" fill="url(#linearGradient50)"/>
 <path d="M180.1,361.54c-1.78-24.39,0-52.58,0-56.02-1.28-3.86-0.32-50.13,2.95-57.01,6.23,0,27.2,0.98,33.42,0.98,5.57,0,27.98-0.53,30.45,1.94,0,8.85,0.02,44.91,0.02,54.09-1.96,8.19-1.46,29.97,0.99,55.04-18.68,1.33-49.52,0.92-67.83,0.98z" fill-rule="evenodd" fill="#a47f00"/>
 <path d="M246.97,250.45c-2.01,8.98,2.76,87.5,0.05,110.11-14.2,1.06-59.77,2.62-70.75-0.98-0.08-15.17,1.62-102.82,2.86-112.96,11.98,1.38,61.38,2.84,67.84,3.83z" fill-rule="evenodd" fill="url(#linearGradient53)"/>
 <path d="M242.52,139.16c0,13.43-11.89,24.33-26.54,24.33s-26.54-10.9-26.54-24.33,11.89-24.33,26.54-24.33,26.54,10.9,26.54,24.33z" stroke="#806b00" stroke-width="5.599999" fill="none"/>
 <path d="M312.3,171.29a28.504,24.573,0,1,0,-57.01,0,28.504,24.573,0,1,0,57.01,0z" transform="matrix(0.942528,0,0,0.973333,-51.66854,-27.97312)" stroke="url(#linearGradient54)" stroke-width="5" fill="none"/>
 <path d="M266.91,362.71c1.07-8.45-0.91-66.27-0.91-72.81,0-7.81-0.31-50.33-0.31-56.2-7.38-0.4-10.9-0.51-18.46-0.51,0,4.83-0.11,38.6-0.34,56.55,0,7.8-0.26,66.26-0.26,72.91,6.43,0.11,17.33,0.06,20.28,0.06z" fill-rule="evenodd" stroke="#280000" stroke-width="1" fill="url(#linearGradient48)"/>
 <path d="M182.14,248.17c1.82,4.04,6.68,0.51,8.94,1.53,1.79,0.31,12.14,0.78,14.86-0.66,6.17,0.33,15.33-0.22,19.22,0.66,4.97-1.71,16.87,0.65,21.54,0,0.86-12.28,1.06-7.43,0.94-17.26-4.43,1.43-10.49,0.88-14.93,0.88-2.53-1.3-19.75,0-22.29,0-3.07,0-22.21-0.09-27.01-0.44,0.01,7.86-2.01,4.7-1.27,15.29z" fill-rule="evenodd" stroke="#000" stroke-width="0.404451" fill="url(#linearGradient132)"/>
 <path d="M163.13,364.87c-2.67-2.67,2.29-62.12,2.29-69.68,0-7.43-0.55-27.54-1.18-62.49,7.15,0,12.68,0.57,19.48,1.34-1.79,4.92-4.69,55.68-4.69,62.97,0,7.09-1.99,64.45,1.04,67.48,0,1.85-12.26,0.38-16.94,0.38z" fill-rule="evenodd" stroke="#380000" stroke-width="1" fill="url(#linearGradient142)"/>
</svg>
