<svg overflow="visible" version="1.1"
	viewBox="0 0 417.922 255.146" xmlns="http://www.w3.org/2000/svg"
	xmlns:svg="http://www.w3.org/2000/svg" xmlns:v="http://www.vectomatic.org">
	<g>
		<path
			d="M96.242,137.37c-6.558,7.242-18.018-0.87-11.618-8.94 C90.477,121.049,98.794,130.387,96.242,137.37"
			fill-rule="evenodd" />
		<path
			d="M315.362,184.89c2.385,1.389,3.159,4.08,3.303,6.672 c0.091,1.625-1.104,7.13,0.167,7.859c4.235,2.433,10.292-4.253,15.021-4.478c8.574-0.408,3.397,10.549,0.19,13.699 c-4.966,4.879-11.944,7.448-18.675,8.689c-5.385,0.994-13.795,1.558-18.683-1.344c-4.2-2.494-6.963-6.929-11.532-8.877 c-6.037-2.574-12.103,0.932-17.382,3.747c-6.853,3.654-12.928,7.102-20.978,5.424c-5.754-1.2-10.202-5.074-15.191-7.632 c-6.323-3.243-15.247-1.465-21.604,0.753c-15.364,5.359-27.021,15.337-44.074,9.622c-11.805-3.956-25.769-15.172-38.715-10.439 c-7.357,2.689-13.625,7.174-20.517,10.753c-7.25,3.764-14.788,4.863-22.886,4.806c-6.145-0.043-11.828-1.007-17.264-3.957 c-4.983-2.704-5.936-9.379,0.18-11.537c-7.627-1.351-15.436,0.406-23.073-0.873c-5.325-0.892-15.184-0.584-17.124-6.813 c-1.535-4.929,1.804-11.021,7.317-11.034c3.101-0.006,6.912,0.448,10.08,0.721c4.083,0.35,8.202,0.243,12.274-0.197 c7.039-0.762,14.055-2.494,20.528-5.387c4.633-2.071,13.269-6.218,13.518-12.177c-0.095-2.557-15.216,5.32-16.947,5.922 c-7.618,2.645-15.581,4.63-23.631,5.274c-6.974,0.559-14.288,0.368-21.226-0.634c-8.628-1.246-11.619-6.034-15.956-12.962 c-8.036-12.835-12.6-28.282-12.48-43.44c0.122-15.427-0.672-33.508,5.288-47.997c4.703-11.435,11.107-22.257,19.654-31.249 c19.755-20.783,48.783-26.752,76.089-30.028c17.497-2.099,35.255-0.429,52.845-1.559c16.224-1.042,31.632-1.175,47.486,2.351 c13.827,3.076,27.368,9.211,39.223,17.058c11.783,7.801,20.389,17.661,29.47,28.271c4.907,5.734,8.411,12.477,12.906,18.513 c5.186,6.965,10.647,13.733,16.438,20.206c5.237,5.856,10.661,11.983,16.502,17.239c5.89,5.301,13.615,8.019,21.061,10.314 c12.926,1.172,27.572,0.812,37.792-8.553c5.03-4.609,6.789-10.924,6.166-17.608c-0.555-5.942-2.254-15.076-8.438-17.692 c-7.319-3.096-11.764,4.21-15.223,9.366c-4.847,7.224-8.133,15.124-15.238,20.346c-4.974,3.656-13.981,3.606-19.337,0.925 c-6.992-3.501-9.499-9.334-11.717-16.44c-4.524-14.5-6.201-28.75-17.123-40.296c-4.547-4.808-9.989-8.681-15.757-11.889 c-3.015-1.676-6.125-3.178-9.285-4.56c-3.681-1.608-7.869-2.104-11.28-4.32c-12.172-7.904-11.572-26.574,0.845-33.817 c13.623-7.946,30.122-4.358,44.893-5.43c26.15-1.899,54.908,9.727,74.683,26.477c10.86,9.2,19.048,20.892,25.553,33.386 c6.307,12.115,11.239,26.27,13.431,39.753c4.179,25.702-4.897,54.1-24.974,71.121c-10.186,8.636-21.635,13.35-34.37,16.439 C343.201,190.868,329.636,186.904,315.362,184.89"
			fill="#0054A4" fill-rule="evenodd" />
		<path
			d="M86.882,126.57c-8.909,4.54-1.331,18.344,7.479,12.454 C101.744,134.088,94.058,124.8,86.882,126.57"
			fill="#FFFFFF" fill-rule="evenodd" />
		<path id="maze"
			d="m 99.725973,176.65744 27.543367,16.14611 c 0,0 109.22368,2.84931 128.2191,-6.6484 18.99543,-9.49771 40.84017,-51.28764 18.04566,-75.98169 -22.79451,-24.694055 -47.48856,-71.232842 -79.78078,-71.232842 -32.29222,0 -79.78078,-0.949771 -82.63009,-8.547941 -2.84932,-7.598169 -28.493138,1.899543 -28.493138,1.899543 0,0 -38.940618,19.945194 -30.392678,37.041075 8.547941,17.095881 70.283066,43.689475 68.383526,54.136955 -1.89954,10.44748 -19.9452,54.13696 -20.894967,53.18719 z"
			style="fill: darkblue; stroke: none; visibility: hidden;" v:res3="40x28"
			v:res2="30x20" v:res1="20x14" v:start="103x177" v:end="106x28"
			v:border="darkblue" v:wall="#0054A4" />
	</g>
	<g>
		<style>.G16ed9thB { fill:white; } .G16ed9thD { fill:red; }
			.G16ed9thF { fill:yellow; } </style>
		<rect x="51.0117" y="51.125" width="11.6135" height="11.8398"
			class="G16ed9thB" />
		<rect x="51.0117" y="62.9648" width="11.6135" height="11.8398"
			class="G16ed9thB" />
		<rect x="62.6252" y="39.2852" width="11.6135" height="11.8398"
			class="G16ed9thB" />
		<rect x="62.6252" y="51.125" width="11.6135" height="11.8398"
			class="G16ed9thB" />
		<rect x="62.6252" y="62.9648" width="11.6135" height="11.8398"
			class="G16ed9thB" />
		<rect x="62.6252" y="74.8047" width="11.6135" height="11.8398"
			class="G16ed9thB" />
		<rect x="74.2387" y="39.2852" width="11.6135" height="11.8398"
			class="G16ed9thB" />
		<rect x="74.2387" y="51.125" width="11.6135" height="11.8398"
			class="G16ed9thB" />
		<rect x="74.2387" y="62.9648" width="11.6135" height="11.8398"
			class="G16ed9thB" />
		<rect x="74.2387" y="74.8047" width="11.6135" height="11.8398"
			class="G16ed9thB" />
		<rect x="85.8521" y="27.4453" width="11.6135" height="11.8398"
			class="G16ed9thB" />
		<rect x="85.8521" y="39.2852" width="11.6135" height="11.8398"
			class="G16ed9thB" />
		<rect x="85.8521" y="51.125" width="11.6135" height="11.8398"
			class="G16ed9thB" />
		<rect x="85.8521" y="62.9648" width="11.6135" height="11.8398"
			class="G16ed9thB" />
		<rect x="85.8521" y="74.8047" width="11.6135" height="11.8398"
			class="G16ed9thB" />
		<rect x="85.8521" y="86.6445" width="11.6135" height="11.8398"
			class="G16ed9thB" />
		<rect x="97.4656" y="27.4453" width="11.6135" height="11.8398"
			class="G16ed9thD" />
		<rect x="97.4656" y="39.2852" width="11.6135" height="11.8398"
			class="G16ed9thB" />
		<rect x="97.4656" y="51.125" width="11.6135" height="11.8398"
			class="G16ed9thB" />
		<rect x="97.4656" y="62.9648" width="11.6135" height="11.8398"
			class="G16ed9thB" />
		<rect x="97.4656" y="74.8047" width="11.6135" height="11.8398"
			class="G16ed9thB" />
		<rect x="97.4656" y="86.6445" width="11.6135" height="11.8398"
			class="G16ed9thB" />
		<rect x="97.4656" y="98.4844" width="11.6135" height="11.8398"
			class="G16ed9thB" />
		<rect x="97.4656" y="169.523" width="11.6135" height="11.8398"
			class="G16ed9thF" />
		<rect x="109.079" y="27.4453" width="11.6135" height="11.8398"
			class="G16ed9thB" />
		<rect x="109.079" y="39.2852" width="11.6135" height="11.8398"
			class="G16ed9thB" />
		<rect x="109.079" y="51.125" width="11.6135" height="11.8398"
			class="G16ed9thB" />
		<rect x="109.079" y="62.9648" width="11.6135" height="11.8398"
			class="G16ed9thB" />
		<rect x="109.079" y="74.8047" width="11.6135" height="11.8398"
			class="G16ed9thB" />
		<rect x="109.079" y="86.6445" width="11.6135" height="11.8398"
			class="G16ed9thB" />
		<rect x="109.079" y="98.4844" width="11.6135" height="11.8398"
			class="G16ed9thB" />
		<rect x="109.079" y="145.844" width="11.6135" height="11.8398"
			class="G16ed9thB" />
		<rect x="109.079" y="157.684" width="11.6135" height="11.8398"
			class="G16ed9thB" />
		<rect x="109.079" y="169.523" width="11.6135" height="11.8398"
			class="G16ed9thB" />
		<rect x="120.693" y="39.2852" width="11.6135" height="11.8398"
			class="G16ed9thB" />
		<rect x="120.693" y="51.125" width="11.6135" height="11.8398"
			class="G16ed9thB" />
		<rect x="120.693" y="62.9648" width="11.6135" height="11.8398"
			class="G16ed9thB" />
		<rect x="120.693" y="74.8047" width="11.6135" height="11.8398"
			class="G16ed9thB" />
		<rect x="120.693" y="86.6445" width="11.6135" height="11.8398"
			class="G16ed9thB" />
		<rect x="120.693" y="98.4844" width="11.6135" height="11.8398"
			class="G16ed9thB" />
		<rect x="120.693" y="110.324" width="11.6135" height="11.8398"
			class="G16ed9thB" />
		<rect x="120.693" y="122.164" width="11.6135" height="11.8398"
			class="G16ed9thB" />
		<rect x="120.693" y="134.004" width="11.6135" height="11.8398"
			class="G16ed9thB" />
		<rect x="120.693" y="145.844" width="11.6135" height="11.8398"
			class="G16ed9thB" />
		<rect x="120.693" y="157.684" width="11.6135" height="11.8398"
			class="G16ed9thB" />
		<rect x="120.693" y="169.523" width="11.6135" height="11.8398"
			class="G16ed9thB" />
		<rect x="120.693" y="181.363" width="11.6135" height="11.8398"
			class="G16ed9thB" />
		<rect x="132.306" y="39.2852" width="11.6135" height="11.8398"
			class="G16ed9thB" />
		<rect x="132.306" y="51.125" width="11.6135" height="11.8398"
			class="G16ed9thB" />
		<rect x="132.306" y="62.9648" width="11.6135" height="11.8398"
			class="G16ed9thB" />
		<rect x="132.306" y="74.8047" width="11.6135" height="11.8398"
			class="G16ed9thB" />
		<rect x="132.306" y="86.6445" width="11.6135" height="11.8398"
			class="G16ed9thB" />
		<rect x="132.306" y="98.4844" width="11.6135" height="11.8398"
			class="G16ed9thB" />
		<rect x="132.306" y="110.324" width="11.6135" height="11.8398"
			class="G16ed9thB" />
		<rect x="132.306" y="122.164" width="11.6135" height="11.8398"
			class="G16ed9thB" />
		<rect x="132.306" y="134.004" width="11.6135" height="11.8398"
			class="G16ed9thB" />
		<rect x="132.306" y="145.844" width="11.6135" height="11.8398"
			class="G16ed9thB" />
		<rect x="132.306" y="157.684" width="11.6135" height="11.8398"
			class="G16ed9thB" />
		<rect x="132.306" y="169.523" width="11.6135" height="11.8398"
			class="G16ed9thB" />
		<rect x="132.306" y="181.363" width="11.6135" height="11.8398"
			class="G16ed9thB" />
		<rect x="143.92" y="39.2852" width="11.6135" height="11.8398"
			class="G16ed9thB" />
		<rect x="143.92" y="51.125" width="11.6135" height="11.8398"
			class="G16ed9thB" />
		<rect x="143.92" y="62.9648" width="11.6135" height="11.8398"
			class="G16ed9thB" />
		<rect x="143.92" y="74.8047" width="11.6135" height="11.8398"
			class="G16ed9thB" />
		<rect x="143.92" y="86.6445" width="11.6135" height="11.8398"
			class="G16ed9thB" />
		<rect x="143.92" y="98.4844" width="11.6135" height="11.8398"
			class="G16ed9thB" />
		<rect x="143.92" y="110.324" width="11.6135" height="11.8398"
			class="G16ed9thB" />
		<rect x="143.92" y="122.164" width="11.6135" height="11.8398"
			class="G16ed9thB" />
		<rect x="143.92" y="134.004" width="11.6135" height="11.8398"
			class="G16ed9thB" />
		<rect x="143.92" y="145.844" width="11.6135" height="11.8398"
			class="G16ed9thB" />
		<rect x="143.92" y="157.684" width="11.6135" height="11.8398"
			class="G16ed9thB" />
		<rect x="143.92" y="169.523" width="11.6135" height="11.8398"
			class="G16ed9thB" />
		<rect x="143.92" y="181.363" width="11.6135" height="11.8398"
			class="G16ed9thB" />
		<rect x="155.533" y="39.2852" width="11.6135" height="11.8398"
			class="G16ed9thB" />
		<rect x="155.533" y="51.125" width="11.6135" height="11.8398"
			class="G16ed9thB" />
		<rect x="155.533" y="62.9648" width="11.6135" height="11.8398"
			class="G16ed9thB" />
		<rect x="155.533" y="74.8047" width="11.6135" height="11.8398"
			class="G16ed9thB" />
		<rect x="155.533" y="86.6445" width="11.6135" height="11.8398"
			class="G16ed9thB" />
		<rect x="155.533" y="98.4844" width="11.6135" height="11.8398"
			class="G16ed9thB" />
		<rect x="155.533" y="110.324" width="11.6135" height="11.8398"
			class="G16ed9thB" />
		<rect x="155.533" y="122.164" width="11.6135" height="11.8398"
			class="G16ed9thB" />
		<rect x="155.533" y="134.004" width="11.6135" height="11.8398"
			class="G16ed9thB" />
		<rect x="155.533" y="145.844" width="11.6135" height="11.8398"
			class="G16ed9thB" />
		<rect x="155.533" y="157.684" width="11.6135" height="11.8398"
			class="G16ed9thB" />
		<rect x="155.533" y="169.523" width="11.6135" height="11.8398"
			class="G16ed9thB" />
		<rect x="155.533" y="181.363" width="11.6135" height="11.8398"
			class="G16ed9thB" />
		<rect x="167.146" y="39.2852" width="11.6135" height="11.8398"
			class="G16ed9thB" />
		<rect x="167.146" y="51.125" width="11.6135" height="11.8398"
			class="G16ed9thB" />
		<rect x="167.146" y="62.9648" width="11.6135" height="11.8398"
			class="G16ed9thB" />
		<rect x="167.146" y="74.8047" width="11.6135" height="11.8398"
			class="G16ed9thB" />
		<rect x="167.146" y="86.6445" width="11.6135" height="11.8398"
			class="G16ed9thB" />
		<rect x="167.146" y="98.4844" width="11.6135" height="11.8398"
			class="G16ed9thB" />
		<rect x="167.146" y="110.324" width="11.6135" height="11.8398"
			class="G16ed9thB" />
		<rect x="167.146" y="122.164" width="11.6135" height="11.8398"
			class="G16ed9thB" />
		<rect x="167.146" y="134.004" width="11.6135" height="11.8398"
			class="G16ed9thB" />
		<rect x="167.146" y="145.844" width="11.6135" height="11.8398"
			class="G16ed9thB" />
		<rect x="167.146" y="157.684" width="11.6135" height="11.8398"
			class="G16ed9thB" />
		<rect x="167.146" y="169.523" width="11.6135" height="11.8398"
			class="G16ed9thB" />
		<rect x="167.146" y="181.363" width="11.6135" height="11.8398"
			class="G16ed9thB" />
		<rect x="178.76" y="39.2852" width="11.6135" height="11.8398"
			class="G16ed9thB" />
		<rect x="178.76" y="51.125" width="11.6135" height="11.8398"
			class="G16ed9thB" />
		<rect x="178.76" y="62.9648" width="11.6135" height="11.8398"
			class="G16ed9thB" />
		<rect x="178.76" y="74.8047" width="11.6135" height="11.8398"
			class="G16ed9thB" />
		<rect x="178.76" y="86.6445" width="11.6135" height="11.8398"
			class="G16ed9thB" />
		<rect x="178.76" y="98.4844" width="11.6135" height="11.8398"
			class="G16ed9thB" />
		<rect x="178.76" y="110.324" width="11.6135" height="11.8398"
			class="G16ed9thB" />
		<rect x="178.76" y="122.164" width="11.6135" height="11.8398"
			class="G16ed9thB" />
		<rect x="178.76" y="134.004" width="11.6135" height="11.8398"
			class="G16ed9thB" />
		<rect x="178.76" y="145.844" width="11.6135" height="11.8398"
			class="G16ed9thB" />
		<rect x="178.76" y="157.684" width="11.6135" height="11.8398"
			class="G16ed9thB" />
		<rect x="178.76" y="169.523" width="11.6135" height="11.8398"
			class="G16ed9thB" />
		<rect x="178.76" y="181.363" width="11.6135" height="11.8398"
			class="G16ed9thB" />
		<rect x="190.373" y="39.2852" width="11.6135" height="11.8398"
			class="G16ed9thB" />
		<rect x="190.373" y="51.125" width="11.6135" height="11.8398"
			class="G16ed9thB" />
		<rect x="190.373" y="62.9648" width="11.6135" height="11.8398"
			class="G16ed9thB" />
		<rect x="190.373" y="74.8047" width="11.6135" height="11.8398"
			class="G16ed9thB" />
		<rect x="190.373" y="86.6445" width="11.6135" height="11.8398"
			class="G16ed9thB" />
		<rect x="190.373" y="98.4844" width="11.6135" height="11.8398"
			class="G16ed9thB" />
		<rect x="190.373" y="110.324" width="11.6135" height="11.8398"
			class="G16ed9thB" />
		<rect x="190.373" y="122.164" width="11.6135" height="11.8398"
			class="G16ed9thB" />
		<rect x="190.373" y="134.004" width="11.6135" height="11.8398"
			class="G16ed9thB" />
		<rect x="190.373" y="145.844" width="11.6135" height="11.8398"
			class="G16ed9thB" />
		<rect x="190.373" y="157.684" width="11.6135" height="11.8398"
			class="G16ed9thB" />
		<rect x="190.373" y="169.523" width="11.6135" height="11.8398"
			class="G16ed9thB" />
		<rect x="190.373" y="181.363" width="11.6135" height="11.8398"
			class="G16ed9thB" />
		<rect x="201.987" y="39.2852" width="11.6135" height="11.8398"
			class="G16ed9thB" />
		<rect x="201.987" y="51.125" width="11.6135" height="11.8398"
			class="G16ed9thB" />
		<rect x="201.987" y="62.9648" width="11.6135" height="11.8398"
			class="G16ed9thB" />
		<rect x="201.987" y="74.8047" width="11.6135" height="11.8398"
			class="G16ed9thB" />
		<rect x="201.987" y="86.6445" width="11.6135" height="11.8398"
			class="G16ed9thB" />
		<rect x="201.987" y="98.4844" width="11.6135" height="11.8398"
			class="G16ed9thB" />
		<rect x="201.987" y="110.324" width="11.6135" height="11.8398"
			class="G16ed9thB" />
		<rect x="201.987" y="122.164" width="11.6135" height="11.8398"
			class="G16ed9thB" />
		<rect x="201.987" y="134.004" width="11.6135" height="11.8398"
			class="G16ed9thB" />
		<rect x="201.987" y="145.844" width="11.6135" height="11.8398"
			class="G16ed9thB" />
		<rect x="201.987" y="157.684" width="11.6135" height="11.8398"
			class="G16ed9thB" />
		<rect x="201.987" y="169.523" width="11.6135" height="11.8398"
			class="G16ed9thB" />
		<rect x="201.987" y="181.363" width="11.6135" height="11.8398"
			class="G16ed9thB" />
		<rect x="213.6" y="51.125" width="11.6135" height="11.8398"
			class="G16ed9thB" />
		<rect x="213.6" y="62.9648" width="11.6135" height="11.8398"
			class="G16ed9thB" />
		<rect x="213.6" y="74.8047" width="11.6135" height="11.8398"
			class="G16ed9thB" />
		<rect x="213.6" y="86.6445" width="11.6135" height="11.8398"
			class="G16ed9thB" />
		<rect x="213.6" y="98.4844" width="11.6135" height="11.8398"
			class="G16ed9thB" />
		<rect x="213.6" y="110.324" width="11.6135" height="11.8398"
			class="G16ed9thB" />
		<rect x="213.6" y="122.164" width="11.6135" height="11.8398"
			class="G16ed9thB" />
		<rect x="213.6" y="134.004" width="11.6135" height="11.8398"
			class="G16ed9thB" />
		<rect x="213.6" y="145.844" width="11.6135" height="11.8398"
			class="G16ed9thB" />
		<rect x="213.6" y="157.684" width="11.6135" height="11.8398"
			class="G16ed9thB" />
		<rect x="213.6" y="169.523" width="11.6135" height="11.8398"
			class="G16ed9thB" />
		<rect x="213.6" y="181.363" width="11.6135" height="11.8398"
			class="G16ed9thB" />
		<rect x="225.214" y="62.9648" width="11.6135" height="11.8398"
			class="G16ed9thB" />
		<rect x="225.214" y="74.8047" width="11.6135" height="11.8398"
			class="G16ed9thB" />
		<rect x="225.214" y="86.6445" width="11.6135" height="11.8398"
			class="G16ed9thB" />
		<rect x="225.214" y="98.4844" width="11.6135" height="11.8398"
			class="G16ed9thB" />
		<rect x="225.214" y="110.324" width="11.6135" height="11.8398"
			class="G16ed9thB" />
		<rect x="225.214" y="122.164" width="11.6135" height="11.8398"
			class="G16ed9thB" />
		<rect x="225.214" y="134.004" width="11.6135" height="11.8398"
			class="G16ed9thB" />
		<rect x="225.214" y="145.844" width="11.6135" height="11.8398"
			class="G16ed9thB" />
		<rect x="225.214" y="157.684" width="11.6135" height="11.8398"
			class="G16ed9thB" />
		<rect x="225.214" y="169.523" width="11.6135" height="11.8398"
			class="G16ed9thB" />
		<rect x="225.214" y="181.363" width="11.6135" height="11.8398"
			class="G16ed9thB" />
		<rect x="236.827" y="74.8047" width="11.6135" height="11.8398"
			class="G16ed9thB" />
		<rect x="236.827" y="86.6445" width="11.6135" height="11.8398"
			class="G16ed9thB" />
		<rect x="236.827" y="98.4844" width="11.6135" height="11.8398"
			class="G16ed9thB" />
		<rect x="236.827" y="110.324" width="11.6135" height="11.8398"
			class="G16ed9thB" />
		<rect x="236.827" y="122.164" width="11.6135" height="11.8398"
			class="G16ed9thB" />
		<rect x="236.827" y="134.004" width="11.6135" height="11.8398"
			class="G16ed9thB" />
		<rect x="236.827" y="145.844" width="11.6135" height="11.8398"
			class="G16ed9thB" />
		<rect x="236.827" y="157.684" width="11.6135" height="11.8398"
			class="G16ed9thB" />
		<rect x="236.827" y="169.523" width="11.6135" height="11.8398"
			class="G16ed9thB" />
		<rect x="236.827" y="181.363" width="11.6135" height="11.8398"
			class="G16ed9thB" />
		<rect x="248.441" y="86.6445" width="11.6135" height="11.8398"
			class="G16ed9thB" />
		<rect x="248.441" y="98.4844" width="11.6135" height="11.8398"
			class="G16ed9thB" />
		<rect x="248.441" y="110.324" width="11.6135" height="11.8398"
			class="G16ed9thB" />
		<rect x="248.441" y="122.164" width="11.6135" height="11.8398"
			class="G16ed9thB" />
		<rect x="248.441" y="134.004" width="11.6135" height="11.8398"
			class="G16ed9thB" />
		<rect x="248.441" y="145.844" width="11.6135" height="11.8398"
			class="G16ed9thB" />
		<rect x="248.441" y="157.684" width="11.6135" height="11.8398"
			class="G16ed9thB" />
		<rect x="248.441" y="169.523" width="11.6135" height="11.8398"
			class="G16ed9thB" />
		<rect x="260.054" y="98.4844" width="11.6135" height="11.8398"
			class="G16ed9thB" />
		<rect x="260.054" y="110.324" width="11.6135" height="11.8398"
			class="G16ed9thB" />
		<rect x="260.054" y="122.164" width="11.6135" height="11.8398"
			class="G16ed9thB" />
		<rect x="260.054" y="134.004" width="11.6135" height="11.8398"
			class="G16ed9thB" />
		<rect x="260.054" y="145.844" width="11.6135" height="11.8398"
			class="G16ed9thB" />
		<rect x="260.054" y="157.684" width="11.6135" height="11.8398"
			class="G16ed9thB" />
		<rect x="260.054" y="169.523" width="11.6135" height="11.8398"
			class="G16ed9thB" />
		<rect x="271.668" y="110.324" width="11.6135" height="11.8398"
			class="G16ed9thB" />
		<rect x="271.668" y="122.164" width="11.6135" height="11.8398"
			class="G16ed9thB" />
		<rect x="271.668" y="134.004" width="11.6135" height="11.8398"
			class="G16ed9thB" />
		<rect x="271.668" y="145.844" width="11.6135" height="11.8398"
			class="G16ed9thB" />
	</g>
	<path style="stroke: rgb(0, 84, 164); stroke-width: 1;"
		d="M62.6252,51.125 V62.9648 M74.2387,62.9648 V74.8047 M85.8521,51.125 V74.8047 M97.4656,74.8047 V86.6445 M109.079,39.2852 V62.9648 M109.079,74.8047 V110.324 M120.693,86.6445 V98.4844 M120.693,157.684 V169.523 M132.306,98.4844 V122.164 M132.306,169.523 V181.363 M143.92,62.9648 V86.6445 M143.92,134.004 V157.684 M143.92,181.363 V193.203 M155.533,51.125 V98.4844 M155.533,110.324 V134.004 M155.533,157.684 V181.363 M167.146,39.2852 V51.125 M167.146,98.4844 V110.324 M167.146,122.164 V145.844 M167.146,169.523 V193.203 M178.76,51.125 V62.9648 M178.76,74.8047 V122.164 M178.76,134.004 V145.844 M178.76,157.684 V169.523 M190.373,51.125 V74.8047 M190.373,86.6445 V134.004 M190.373,157.684 V181.363 M201.987,62.9648 V86.6445 M201.987,98.4844 V110.324 M201.987,122.164 V134.004 M201.987,169.523 V193.203 M213.6,74.8047 V110.324 M213.6,169.523 V181.363 M225.214,74.8047 V98.4844 M225.214,122.164 V157.684 M236.827,86.6445 V98.4844 M236.827,110.324 V122.164 M236.827,134.004 V145.844 M248.441,98.4844 V110.324 M248.441,122.164 V134.004 M248.441,145.844 V169.523 M260.054,110.324 V157.684 M271.668,122.164 V134.004 M97.4656,39.2852 H109.079 M74.2387,51.125 H97.4656 M109.079,51.125 H155.533 M190.373,51.125 H213.6 M62.6252,62.9648 H74.2387 M97.4656,62.9648 H109.079 M120.693,62.9648 H143.92 M155.533,62.9648 H178.76 M213.6,62.9648 H225.214 M85.8521,74.8047 H143.92 M167.146,74.8047 H190.373 M201.987,74.8047 H213.6 M225.214,74.8047 H236.827 M120.693,86.6445 H132.306 M155.533,86.6445 H178.76 M190.373,86.6445 H201.987 M120.693,98.4844 H155.533 M236.827,98.4844 H248.441 M143.92,110.324 H167.146 M190.373,110.324 H201.987 M213.6,110.324 H260.054 M132.306,122.164 H143.92 M167.146,122.164 H178.76 M201.987,122.164 H213.6 M225.214,122.164 H236.827 M132.306,134.004 H155.533 M178.76,134.004 H190.373 M201.987,134.004 H225.214 M236.827,134.004 H248.441 M271.668,134.004 H283.281 M120.693,145.844 H132.306 M155.533,145.844 H167.146 M178.76,145.844 H213.6 M236.827,145.844 H248.441 M260.054,145.844 H271.668 M120.693,157.684 H178.76 M190.373,157.684 H236.827 M132.306,169.523 H143.92 M178.76,169.523 H190.373 M201.987,169.523 H260.054 M120.693,181.363 H132.306 M143.92,181.363 H155.533 M167.146,181.363 H178.76 M225.214,181.363 H248.441" />
	<path style="stroke: darkblue; stroke-width: 1;"
		d="M51.0117,51.125 v11.8398 M51.0117,51.125 h11.6135 M51.0117,62.9648 v11.8398 M51.0117,74.8047 h11.6135 M62.6252,39.2852 v11.8398 M62.6252,39.2852 h11.6135 M62.6252,74.8047 v11.8398 M62.6252,86.6445 h11.6135 M74.2387,39.2852 h11.6135 M74.2387,86.6445 h11.6135 M85.8521,27.4453 v11.8398 M85.8521,27.4453 h11.6135 M85.8521,86.6445 v11.8398 M85.8521,98.4844 h11.6135 M97.4656,27.4453 h11.6135 M97.4656,98.4844 v11.8398 M97.4656,110.324 h11.6135 M97.4656,169.523 v11.8398 M97.4656,169.523 h11.6135 M97.4656,181.363 h11.6135 M120.693,27.4453 v11.8398 M109.079,27.4453 h11.6135 M109.079,110.324 h11.6135 M109.079,145.844 v11.8398 M109.079,145.844 h11.6135 M109.079,157.684 v11.8398 M109.079,181.363 h11.6135 M120.693,39.2852 h11.6135 M120.693,110.324 v11.8398 M120.693,122.164 v11.8398 M120.693,134.004 v11.8398 M120.693,181.363 v11.8398 M120.693,193.203 h11.6135 M132.306,39.2852 h11.6135 M132.306,193.203 h11.6135 M143.92,39.2852 h11.6135 M143.92,193.203 h11.6135 M155.533,39.2852 h11.6135 M155.533,193.203 h11.6135 M167.146,39.2852 h11.6135 M167.146,193.203 h11.6135 M178.76,39.2852 h11.6135 M178.76,193.203 h11.6135 M190.373,39.2852 h11.6135 M190.373,193.203 h11.6135 M213.6,39.2852 v11.8398 M201.987,39.2852 h11.6135 M201.987,193.203 h11.6135 M225.214,51.125 v11.8398 M213.6,51.125 h11.6135 M213.6,193.203 h11.6135 M236.827,62.9648 v11.8398 M225.214,62.9648 h11.6135 M225.214,193.203 h11.6135 M248.441,74.8047 v11.8398 M236.827,74.8047 h11.6135 M248.441,181.363 v11.8398 M236.827,193.203 h11.6135 M260.054,86.6445 v11.8398 M248.441,86.6445 h11.6135 M248.441,181.363 h11.6135 M271.668,98.4844 v11.8398 M260.054,98.4844 h11.6135 M271.668,157.684 v11.8398 M271.668,169.523 v11.8398 M260.054,181.363 h11.6135 M283.281,110.324 v11.8398 M271.668,110.324 h11.6135 M283.281,122.164 v11.8398 M283.281,134.004 v11.8398 M283.281,145.844 v11.8398 M271.668,157.684 h11.6135" />
	<text
		style="font-size:72px;font-style:normal;font-weight:bold;fill:#FFFFFF;fill-opacity:1;stroke:#000000;font-family:Arial;"
		x="50" y="235"><tspan xmlns:v="http://www.vectomatic.org" v:title="mazeTitle"/></text>
</svg>